<svg xmlns="http://www.w3.org/2000/svg" viewBox="0 0 765 260.82501">
  <defs>
    <clipPath id="a">
      <path d="M0 2086.64V0h6120v2086.64H0z"/>
    </clipPath>
  </defs>
  <g clip-path="url(#a)" transform="matrix(.13 0 0 -.13 0 260.82)">
    <path fill="#fff" d="M1691.21 805.62l-12.53-.472-8.92.473-6.62.95-4.54 1.22-4.25 1.62-3.99 2.09-2.44 1.69-2.29 1.9-2.23 2.17-1.96 2.36-2.71 4.07-2.43 4.66-2.06 5.34-2.13 8.18-1.82 12.098-.75 17.37v29.328l-.13 9.936v9.795l-.07 9.87-.07 9.8-.1 9.8-.1 9.8-.14 9.66-.13 9.67-.21 9.66-.13 9.6-.14 9.53-.27 9.53-.27 9.46-.2 9.33-.3 9.33-.3 9.25-.31 9.2-.3 9.12-.41 8.99-.33 8.92-.38 8.86-.47 8.78-.44 8.72-.41 8.51-.54 8.52-.47 8.38-.61 8.31-.54 8.18-.54 8.05-.64 7.97-.61 7.77-.64 7.78-.68 7.5-.74 7.5-.68 7.3-.77 7.23-.78 7.03-.81 6.96-.81 6.76-.88 6.62-.88 6.56-.88 6.35-.88 6.15-1.01 6.08-.95 5.88-1.01 5.75-1.02 5.54-1.14 5.41-1.02 5.27-1.11 5.07-1.19 4.93-1.15 4.8-1.24 4.53-1.22 4.39-1.25 4.26-1.29 4.05-1.28 3.86-1.35 3.72-1.36 3.51-1.42 3.31-1.41 3.18-1.49 2.97-1.42 2.77-1.55 2.57-1.49 2.43-1.62 2.24-1.56 2.02-1.62 1.83-1.69 1.62-1.69 1.42-1.69 1.28-1.79 1.08-1.72.88-1.86.68-1.86.47-1.82.34-1.97.06h-119.08l1.89-.06 1.89-.34 1.83-.47 1.79-.68 1.79-.88 1.76-1.08 1.72-1.28 1.62-1.42 1.69-1.62 1.66-1.83 1.55-2.02 1.59-2.24 1.52-2.43 1.49-2.57 1.55-2.77 1.43-2.97 1.42-3.18 1.38-3.31 1.38-3.51 1.32-3.72 1.32-3.86 1.28-4.05 1.29-4.26 1.21-4.39 1.19-4.53 1.18-4.8 1.11-4.93 1.12-5.07 1.15-5.27 1.01-5.41 1.08-5.54.95-5.75 1.01-5.88.95-6.08.95-6.15.88-6.35.94-6.56.81-6.62.81-6.76.81-6.96.82-7.03.74-7.23.68-7.3.74-7.5.71-7.5.61-7.78.6-7.77.61-7.97.65-8.05.47-8.18.57-8.31.51-8.38.47-8.52.51-8.51.4-8.72.41-8.78.41-8.86.4-8.92.37-8.99.34-9.12.34-9.2.27-9.25.2-9.33.34-9.33.21-9.46.19-9.53.21-9.53.2-9.6.13-9.66.17-9.67.11-9.662.1-9.795.1-9.8.1-9.8v-9.87l.11-9.8v-19.8l.06-9.87v-27.57l.84-23.52 2.57-21.16 3.96-18.72 5.47-16.49 6.69-14.462 7.87-12.5 5.85-7.366 6.12-6.56 10-8.52 10.71-7.02 11.36-5.68 11.76-4.39 16.19-4.33 20.57-3.04 28.5-1.28 26.31 1.347 11.49 1.42V806.1l-5.44-.47"/>
    <path fill="#cf202e" d="M1406.65 806.23l-.75.2-.67.27-.85.41-.71.472-.71.54-.81.68-.07.07-.64.667-.81.88-.81.88-.75 1-.81 1.09-.77 1.21-.81 1.28-.78 1.36-.81 1.48-.81 1.55-.81 1.623-.81 1.76-.82 1.817-.84 1.907-.81 2.02-.85 2.102-.88 2.16-.8 2.294-.88 2.37-.88 2.43-.88 2.5-.88 2.626-.84 2.71-.85 2.84-.95 2.833-.91 2.98-.91 3.04-.95 3.168-.88 3.18-.94 3.31-.92 3.38-.91 3.45-.98 3.52-.98 3.64-.94 3.725-.98 3.777-1.05 3.79-.95 3.99-.98 3.99-1.01 4.05-1.04 4.19-1.02 4.185-1.08 4.33-1.02 4.33-1.08 4.46-1.01 4.52-1.12 4.53-1.04 4.66-1.09 4.74-1.15 4.73-1.08 4.8-1.14 4.93-1.12 4.93-1.18 5-1.19 5.07-1.18 5.14-1.15 5.14-1.21 5.27-1.26 5.27-1.21 5.34-1.25 5.4-1.22 5.48-1.32 5.47-1.21 5.55-1.32 5.54-1.35 5.61-1.28 5.67-1.36 5.75-1.32 5.68-1.45 5.81-1.32 5.81-1.42 5.81-1.45 5.88-1.42 5.95-1.49 5.95-1.48 5.95-1.52 6.01-1.52 6.02-1.55 6.01-1.53 6.08-1.62 6.09-1.32 5.2-.27.88-1.62 6.15-1.69 6.08-1.69 6.15-1.69 6.15-1.76 6.16-1.72 6.21-1.86 6.15-1.76 6.15-1.82 6.22-1.89 6.15-1.9 6.15-1.96 6.22-1.99 6.15-2 6.15-2.02 6.15-2.1 6.08-2.02 6.15-2.24 6.08-2.16 6.15-2.26 6.09-2.27 6.01-2.33 6.02-2.33 6.01-2.47 6.02-2.46 5.95-2.57 5.88-2.53 5.94-2.68 5.82-2.63 5.81-2.77 5.81-2.84 5.74-2.87 5.68-2.94 5.68-3.11 5.61-3.11 5.54-3.21 5.54-3.28 5.48-3.38 5.4-3.51 5.41-3.62 5.27-3.68 5.27-3.79 5.21-3.99 5.14-4.02 5.06-4.19 5-4.36 4.87-4.42 4.87-4.63 4.79-4.77 4.74-4.96 4.66-5.07 4.6-5.34 4.45-5.41 4.47-5.74 4.32-5.88 4.26-6.09 4.19-6.42 4.06-6.62 3.98-6.83 3.92-7.26 3.85-7.47 3.66-7.84 3.65-8.18 3.58-8.65 3.45-9.06 3.31-9.42 3.24-9.97 3.17-10.51 3.05-11.18 2.9-11.77 2.84-12.57 2.77-13.38 2.64-14.43 2.5-15.378 2.37-16.62 2.29-18.048 2.23-19.735 2.03-21.63 1.96-24 1.83-26.83 1.75-30.25 1.55-34.44 1.49-39.47 1.36-45.35 1.28-50.96 1.08-54.606 1.02h-.333l3.1-1.02 3.11-1.08 3.177-1.28 3.11-1.36 3.11-1.49 3.173-1.55 3.038-1.75 3.18-1.83 3.11-1.96 3.11-2.03 3.107-2.23 3.146-2.29 3.07-2.37 3.11-2.5 3.11-2.64 3.046-2.77 3.14-2.84 3.11-2.9 3.076-3.05 3.043-3.17 3.11-3.24 3.108-3.31 3.11-3.45 3.045-3.58 3.07-3.65 3.082-3.66 3.03-3.85 3.074-3.92 3.078-3.98 3.04-4.06 3.08-4.19 3.007-4.26 3.07-4.32 3.012-4.47 3.077-4.45 3.07-4.6 2.97-4.66 3.04-4.74 3.04-4.79 3.045-4.87 3.008-4.87 3.074-5 2.933-5.06 3.08-5.14 3.005-5.21 3.007-5.27 2.97-5.27 3.046-5.41 2.973-5.4 3.01-5.48 3.01-5.54 2.975-5.54 2.968-5.61 2.977-5.68 3.04-5.68 2.973-5.74 2.94-5.81 2.976-5.81 2.932-5.82 2.977-5.94 2.973-5.88 2.974-5.95 2.94-6.02 2.974-6.01 2.94-6.02 2.97-6.01 2.977-6.09 2.91-6.15 2.91-6.08 2.97-6.15 2.97-6.08 2.84-6.15 2.975-6.15 2.97-6.15 2.84-6.22 2.976-6.15 2.834-6.15 2.977-6.22 2.84-6.15 2.967-6.15 2.877-6.21 2.91-6.16 2.906-6.15 2.872-6.15 2.84-6.08 2.905-6.15 2.94-6.08 2.872-6.09 2.834-6.08 2.876-6.01 2.874-6.02 2.834-6.01 2.84-5.95 2.91-5.95 2.834-5.95 2.846-5.88 2.87-5.81 2.875-5.81 2.803-5.81 2.802-5.68 2.87-5.75 2.877-5.67 2.77-5.61 2.836-5.54 2.84-5.55 2.77-5.47 2.845-5.48 2.77-5.4 2.87-5.34 2.74-5.27 2.84-5.27 2.773-5.14 2.77-5.14 2.87-5.07 2.734-5 2.773-4.93 2.77-4.93 2.776-4.8 2.77-4.73 2.77-4.74 2.768-4.66 2.776-4.53 2.74-4.52 2.74-4.46 2.772-4.33 2.7-4.33 2.774-4.19 2.77-4.19 2.77-4.05 2.706-3.99 2.7-3.99 2.74-3.79 2.7-3.777 2.74-3.725 2.702-3.64 2.703-3.52 2.7-3.45 2.705-3.38 2.636-3.31 2.77-3.18 2.64-3.167 2.677-3.037 2.66-2.98 2.71-2.83 2.7-2.84 2.63-2.713 2.67-2.626 2.67-2.5 2.64-2.43 2.67-2.37 2.67-2.3 2.63-2.16 2.61-2.1 2.67-2.02 2.57-1.903 2.7-1.816 2.63-1.76 2.57-1.62 2.64-1.552 2.6-1.484 2.6-1.36 2.6-1.28 2.61-1.213 2.56-1.09 2.64-1.01 2.57-.88 2.56-.88 2.64-.74 2.57-.68 2.54-.54 2.53-.47 2.57-.41 2.57-.27 2.57-.2 2.53-.07h322.62l-.74.07"/>
    <path fill="#fff" d="M1746.2 1185.72h120.1V703.23h-120.1v482.49zm0 189.17h119.18v-106.91H1746.2v106.91m142.84-189.17h126.75l100.27-298.93c9.49-28.38 16.08-72.778 17.07-72.778h1.82c.98 0 7.64 44.398 17.06 72.777l100.3 298.93h126.76l-173.12-482.49h-141.9l-175.01 482.49m805.24-181.6c-1.82 65.22-42.51 100.23-95.49 100.23-61.47 0-104.09-37.85-115.41-100.23h210.9zm-92.65 192.96c139.05 0 213.84-101.24 213.84-228.92 0-14.19-2.87-46.36-2.87-46.36h-333c7.54-84.21 72.82-127.73 144.73-127.73 77.53 0 139.03 52.98 139.03 52.98l46.36-86.1s-73.73-69.07-193.9-69.07c-159.88 0-259.19 115.43-259.19 252.63 0 148.49 101.21 252.57 245 252.57m271.96-389.77s52.95-57.72 141.86-57.72c51.1 0 95.57 25.55 95.57 75.7 0 104.08-256.35 78.54-256.35 233.64 0 85.16 76.64 131.53 162.68 131.53 100.26 0 146.62-52.04 146.62-52.04l-29.3-49.21s-40.65 43.53-119.22 43.53c-48.19 0-94.58-20.82-94.58-73.81 0-104.96 256.38-76.57 256.38-233.64 0-77.59-67.18-133.41-162.71-133.41-115.44 0-175.99 69.07-175.99 69.07l35.04 46.36m396.83 312.18h-62.48v53.94h63.39v137.12h63.4v-137.12h119.22v-53.94h-119.22V883.01c0-111.653 70.96-125.84 106.92-125.84 13.24 0 21.69 1.887 21.69 1.887v-57.65s-10.41-1.96-27.37-1.96c-54.91 0-165.55 17.97-165.55 176.94v243.1m245.03 59.61h63.46v-84.21c0-20.82-1.96-37.85-1.96-37.85h1.96c22.64 71.91 75.63 126.79 150.39 126.79 13.24 0 25.47-2.84 25.47-2.84v-63.39s-11.29 1.89-23.55 1.89c-67.21 0-117.33-52.99-138.18-122.94-9.46-30.28-13.22-62.45-13.22-92.72v-200.6h-64.37v475.87m611.18-188.29c-3.86 99.35-64.34 145.71-135.38 145.71-79.44 0-148.48-50.14-163.62-145.71h299zm-133.42 199.65c131.46 0 198.64-101.25 198.64-219.52 0-11.292-1.89-33.05-1.89-33.05h-365.17c2.84-122.058 86.11-188.3 184.44-188.3 87.05 0 144.77 57.72 144.77 57.72l29.33-49.2s-69.07-66.23-175.92-66.23c-141.94 0-248.85 102.19-248.85 248.85 0 156.05 106 249.73 234.65 249.73m405.62-443.698c90.8 0 145.68 94.61 145.68 176.93v20.82H4517c-74.65 0-224.11-2.84-224.11-107.87 0-44.41 34.94-89.89 105.94-89.89zm119.22 250.74h26.46v12.23c0 91.79-50.15 123.01-118.28 123.01-78.46 0-134.36-45.42-134.36-45.42l-30.21 49.2s62.42 53.94 169.37 53.94c114.39 0 177.76-63.4 177.76-182.62V703.23h-61.44v52.04c0 23.66 1.86 39.742 1.86 39.742h-1.86s-39.74-103.133-158.93-103.133c-79.45 0-161.8 46.43-161.8 140.98 0 160.78 209.08 164.64 291.43 164.64m191.71 181.6h63.33v-70.96c0-20.82-1.9-37.85-1.9-37.85h1.9c22.7 64.34 98.4 120.17 172.27 120.17 87.93 0 133.31-40.69 147.47-119.22h1.96c25.51 64.33 94.55 119.22 174.98 119.22 115.4 0 158.02-67.18 158.02-184.45V703.23h-64.38v286.63c0 77.59-16.09 141.93-103.1 141.93-72.86 0-132.47-64.34-150.45-134.29-6.62-20.82-8.45-43.53-8.45-69.07v-225.2h-64.34v286.63c0 71.98-10.44 141.93-100.3 141.93-77.55 0-136.17-67.18-156.12-140.04-4.66-19.87-6.56-41.56-6.56-63.32v-225.2h-64.33v475.87"/>
  </g>
</svg>
